<svg viewBox="0 0 1734 1723" fill="none" xmlns="http://www.w3.org/2000/svg">
  <g filter="url(#noiseFilter)">
    <path d="M0 0V1722.25H1734V0H0Z" fill="url(#paint0_linear_2_82)" />
    <path
      d="M1241.85 0C1124.83 113.701 1008.07 251.702 891.868 389.05C712.818 600.68 535.078 810.761 359.693 928.008C239.795 1005.8 119.898 1042.73 0 1046.52V1722.25H1734V0H1241.85Z"
      fill="url(#paint1_linear_2_82)"
    />
    <path
      d="M1734 411.995C1521.41 482.73 1308.93 652.524 1098.28 820.866C919.227 963.95 741.489 1105.99 566.105 1185.26C377.403 1268.04 188.701 1282.37 0 1248.65V1722.25H1734V411.995Z"
      fill="url(#paint2_linear_2_82)"
    />
    <path
      d="M1734 989.551C1602.71 1039.63 1471.72 1104 1341.42 1168.02C1162.37 1256 984.632 1343.33 809.249 1392.07C539.499 1464.83 269.749 1451.59 0 1388.97V1722.25H1734V989.551Z"
      fill="url(#paint3_linear_2_82)"
    />
  </g>
  <path
    d="M1734 1347.26C1694.05 1359.03 1654.15 1371.03 1614.31 1383.01C1435.26 1436.86 1257.52 1490.31 1082.13 1520.15C721.419 1579.71 360.709 1545.14 0 1470.03V1722.25H1734V1347.26Z"
    fill="url(#paint4_linear_2_82)"
  />
  <defs>
    <filter
      id="noiseFilter"
      x="0%"
      y="0%"
      width="100%"
      height="100%"
      filterUnits="userSpaceOnUse"
      primitiveUnits="objectBoundingBox"
    >
      <feTurbulence
        type="fractalNoise"
        baseFrequency="0.7"
        numOctaves="2"
        stitchTiles="stitch"
      />
      <feColorMatrix type="saturate" values="0" result="grayscaleNoise" />
      <feBlend in="SourceGraphic" in2="grayscaleNoise" mode="multiply" />
    </filter>
    <linearGradient
      id="paint0_linear_2_82"
      x1="2198.17"
      y1="-147.658"
      x2="237.702"
      y2="1099.23"
      gradientUnits="userSpaceOnUse"
    >
      <stop stop-color="#11007A" />
      <stop offset="0.515625" stop-color="#6328C3" />
      <stop offset="1" stop-color="#E36BFF" />
    </linearGradient>
    <linearGradient
      id="paint1_linear_2_82"
      x1="2455.31"
      y1="-460.025"
      x2="475.442"
      y2="1638.9"
      gradientUnits="userSpaceOnUse"
    >
      <stop stop-color="#11007A" />
      <stop offset="0.515625" stop-color="#6328C3" />
      <stop offset="1" stop-color="#E36BFF" />
    </linearGradient>
    <linearGradient
      id="paint2_linear_2_82"
      x1="2419.45"
      y1="478.159"
      x2="655.979"
      y2="2080.72"
      gradientUnits="userSpaceOnUse"
    >
      <stop stop-color="#11007A" />
      <stop offset="0.515625" stop-color="#6328C3" />
      <stop offset="1" stop-color="#E36BFF" />
    </linearGradient>
    <linearGradient
      id="paint3_linear_2_82"
      x1="2429.94"
      y1="1306.69"
      x2="893.336"
      y2="2545.72"
      gradientUnits="userSpaceOnUse"
    >
      <stop stop-color="#11007A" />
      <stop offset="0.515625" stop-color="#6328C3" />
      <stop offset="1" stop-color="#E36BFF" />
    </linearGradient>
    <linearGradient
      id="paint4_linear_2_82"
      x1="2396.71"
      y1="1969.86"
      x2="1326.05"
      y2="2999.26"
      gradientUnits="userSpaceOnUse"
    >
      <stop stop-color="#11007A" />
      <stop offset="0.515625" stop-color="#6328C3" />
      <stop offset="1" stop-color="#E36BFF" />
    </linearGradient>
  </defs>
</svg>
