<svg width="1728" height="1117" viewBox="0 0 1728 1117" fill="none" xmlns="http://www.w3.org/2000/svg">
  <mask id="mask0_10054_17162" style="mask-type:luminance" maskUnits="userSpaceOnUse" x="-3" y="-205" width="1734" height="1723">
    <path d="M1730.75 -205H-2.74707V1517.25H1730.75V-205Z" fill="white" />
  </mask>
  <g mask="url(#mask0_10054_17162)">
    <path d="M1730.75 -205H-2.74707V1517.25H1730.75V-205Z" fill="#0F011A" />
    <g filter="url(#filter0_d_10054_17162)">
      <path fill-rule="evenodd" clip-rule="evenodd" d="M13286.2 288.664L13048.3 226.719C12810.3 154.448 12334.4 20.2329 11858.6 20.2329C11396.7 20.2329 10920.8 154.448 10444.9 288.664C9969.03 422.879 9493.15 567.419 9017.27 422.879C8555.38 288.664 8079.5 -113.982 7603.6 -661.169C7127.72 -1208.35 6651.84 -1889.75 6175.96 -1683.28C5700.08 -1476.79 5238.2 -392.738 4762.32 226.718C4286.44 835.85 3810.54 970.065 3334.66 835.85C2858.78 701.635 2396.89 288.664 1921.01 -186.253C1445.13 -661.169 969.245 -1208.35 493.363 -1001.87C17.48 -795.384 -458.403 154.448 -920.289 495.148C-1396.17 835.85 -1872.05 567.419 -2347.93 82.1777C-2823.81 -392.738 -3299.71 -1074.14 -3761.6 -1476.79C-4237.48 -1889.75 -4713.36 -2023.97 -4951.29 -2096.24L-5189.24 -2158.19V1517.25H-4951.29C-4713.36 1517.25 -4237.48 1517.25 -3761.6 1517.25C-3299.71 1517.25 -2823.81 1517.25 -2347.93 1517.25C-1872.05 1517.25 -1396.17 1517.25 -920.291 1517.25C-458.404 1517.25 17.4795 1517.25 493.361 1517.25C969.245 1517.25 1445.13 1517.25 1921.01 1517.25C2396.89 1517.25 2858.78 1517.25 3334.66 1517.25C3810.54 1517.25 4286.44 1517.25 4762.32 1517.25C5238.2 1517.25 5700.08 1517.25 6175.96 1517.25C6651.84 1517.25 7127.72 1517.25 7603.6 1517.25C8079.5 1517.25 8555.38 1517.25 9017.27 1517.25C9493.15 1517.25 9969.03 1517.25 10444.9 1517.25C10920.8 1517.25 11396.7 1517.25 11858.6 1517.25C12334.4 1517.25 12810.3 1517.25 13048.3 1517.25H13286.2V288.664Z" fill="url(#paint0_linear_10054_17162)" />
    </g>
    <g filter="url(#filter1_d_10054_17162)">
      <path fill-rule="evenodd" clip-rule="evenodd" d="M12537.5 562.554L12333.5 514.418C12129.5 458.26 11721.5 353.966 11313.5 353.966C10917.4 353.966 10509.4 458.26 10101.4 562.554C9693.35 666.849 9285.32 779.166 8877.27 666.849C8481.25 562.554 8073.22 249.671 7665.19 -175.53C7257.17 -600.73 6849.14 -1130.23 6441.11 -969.772C6033.08 -809.319 5637.06 33.0588 5229.03 514.418C4821 987.755 4412.98 1092.05 4004.95 987.755C3596.92 883.46 3200.89 562.554 2792.87 193.513C2384.84 -175.53 1976.81 -600.73 1568.78 -440.278C1160.75 -279.824 752.72 458.26 356.693 723.008C-51.3347 987.755 -459.363 779.166 -867.39 402.102C-1275.42 33.059 -1683.45 -496.436 -2079.48 -809.319C-2487.5 -1130.23 -2895.53 -1234.52 -3099.55 -1290.68L-3303.56 -1338.81V1517.25H-3099.55C-2895.53 1517.25 -2487.5 1517.25 -2079.48 1517.25C-1683.45 1517.25 -1275.42 1517.25 -867.39 1517.25C-459.363 1517.25 -51.3347 1517.25 356.693 1517.25C752.72 1517.25 1160.75 1517.25 1568.78 1517.25C1976.81 1517.25 2384.84 1517.25 2792.87 1517.25C3200.89 1517.25 3596.92 1517.25 4004.95 1517.25C4412.98 1517.25 4821 1517.25 5229.03 1517.25C5637.06 1517.25 6033.08 1517.25 6441.11 1517.25C6849.14 1517.25 7257.17 1517.25 7665.19 1517.25C8073.22 1517.25 8481.25 1517.25 8877.27 1517.25C9285.32 1517.25 9693.35 1517.25 10101.4 1517.25C10509.4 1517.25 10917.4 1517.25 11313.5 1517.25C11721.5 1517.25 12129.5 1517.25 12333.5 1517.25H12537.5V562.554Z" fill="url(#paint1_linear_10054_17162)" />
    </g>
    <g filter="url(#filter2_d_10054_17162)">
      <path fill-rule="evenodd" clip-rule="evenodd" d="M12743.9 871.774L12539.9 839.229C12335.9 801.26 11927.9 730.746 11519.9 730.746C11123.8 730.746 10715.8 801.26 10307.8 871.774C9899.76 942.289 9491.73 1018.23 9083.68 942.289C8687.66 871.774 8279.63 660.231 7871.6 372.75C7463.58 85.2675 7055.55 -272.728 6647.52 -164.244C6239.49 -55.7612 5843.47 513.778 5435.44 839.229C5027.41 1159.26 4619.39 1229.76 4211.36 1159.26C3803.33 1088.74 3407.3 871.773 2999.28 622.261C2591.25 372.749 2183.22 85.2675 1775.2 193.751C1367.16 302.234 959.132 801.259 563.105 980.257C155.076 1159.26 -252.953 1018.23 -660.98 763.29C-1069.01 513.778 -1477.04 155.782 -1873.07 -55.7612C-2281.09 -272.728 -2689.12 -343.242 -2893.13 -381.212L-3097.15 -413.757V1517.25H-2893.13C-2689.12 1517.25 -2281.09 1517.25 -1873.07 1517.25C-1477.04 1517.25 -1069.01 1517.25 -660.98 1517.25C-252.953 1517.25 155.076 1517.25 563.103 1517.25C959.13 1517.25 1367.16 1517.25 1775.2 1517.25C2183.22 1517.25 2591.25 1517.25 2999.28 1517.25C3407.3 1517.25 3803.33 1517.25 4211.36 1517.25C4619.39 1517.25 5027.41 1517.25 5435.44 1517.25C5843.47 1517.25 6239.49 1517.25 6647.52 1517.25C7055.55 1517.25 7463.58 1517.25 7871.6 1517.25C8279.63 1517.25 8687.66 1517.25 9083.68 1517.25C9491.73 1517.25 9899.76 1517.25 10307.8 1517.25C10715.8 1517.25 11123.8 1517.25 11519.9 1517.25C11927.9 1517.25 12335.9 1517.25 12539.9 1517.25H12743.9V871.774Z" fill="url(#paint2_linear_10054_17162)" />
    </g>
    <g filter="url(#filter3_d_10054_17162)">
      <path fill-rule="evenodd" clip-rule="evenodd" d="M12987.1 1120.38L12783.1 1100.36C12579.1 1077.01 12171 1033.66 11763 1033.66C11367 1033.66 10959 1077.01 10550.9 1120.38C10142.9 1163.73 9734.87 1210.42 9326.85 1163.73C8930.82 1120.38 8522.77 990.299 8114.75 813.537C7706.72 636.774 7298.69 416.655 6890.67 483.359C6482.64 550.061 6086.61 900.25 5678.58 1100.36C5270.56 1297.13 4862.53 1340.48 4454.5 1297.13C4046.48 1253.77 3650.45 1120.38 3242.42 966.953C2834.39 813.536 2426.37 636.775 2018.34 703.476C1610.3 770.18 1202.28 1077.01 806.249 1187.07C398.22 1297.13 -9.80811 1210.42 -417.836 1053.67C-825.865 900.25 -1233.89 680.131 -1629.92 550.061C-2037.95 416.655 -2445.98 373.298 -2649.99 349.952L-2854 329.941V1517.25H-2649.99C-2445.98 1517.25 -2037.95 1517.25 -1629.92 1517.25C-1233.89 1517.25 -825.865 1517.25 -417.836 1517.25C-9.80835 1517.25 398.22 1517.25 806.249 1517.25C1202.28 1517.25 1610.3 1517.25 2018.34 1517.25C2426.37 1517.25 2834.39 1517.25 3242.42 1517.25C3650.45 1517.25 4046.48 1517.25 4454.5 1517.25C4862.53 1517.25 5270.56 1517.25 5678.58 1517.25C6086.61 1517.25 6482.64 1517.25 6890.67 1517.25C7298.69 1517.25 7706.72 1517.25 8114.75 1517.25C8522.77 1517.25 8930.8 1517.25 9326.83 1517.25C9734.87 1517.25 10142.9 1517.25 10550.9 1517.25C10959 1517.25 11367 1517.25 11763 1517.25C12171 1517.25 12579.1 1517.25 12783.1 1517.25H12987.1V1120.38Z" fill="url(#paint3_linear_10054_17162)" />
    </g>
    <g filter="url(#filter4_d_10054_17162)">
      <path fill-rule="evenodd" clip-rule="evenodd" d="M13260 1274.32L13056 1262.07C12851.9 1247.78 12443.9 1221.24 12035.9 1221.24C11639.9 1221.24 11231.8 1247.78 10823.8 1274.32C10415.8 1300.86 10007.8 1329.45 9599.73 1300.86C9203.7 1274.32 8795.66 1194.71 8387.63 1086.52C7979.6 978.321 7571.57 843.589 7163.55 884.417C6755.52 925.245 6359.49 1139.59 5951.46 1262.07C5543.44 1382.52 5135.41 1409.06 4727.38 1382.52C4319.36 1355.98 3923.33 1274.32 3515.3 1180.42C3107.27 1086.52 2699.25 978.321 2291.22 1019.15C1883.19 1059.98 1475.16 1247.78 1079.13 1315.15C671.101 1382.52 263.072 1329.45 -144.955 1233.5C-552.984 1139.59 -961.011 1004.86 -1357.04 925.245C-1765.07 843.589 -2173.1 817.051 -2377.11 802.762L-2581.12 790.513V1517.25H-2377.11C-2173.1 1517.25 -1765.07 1517.25 -1357.04 1517.25C-961.011 1517.25 -552.984 1517.25 -144.955 1517.25C263.072 1517.25 671.101 1517.25 1079.13 1517.25C1475.16 1517.25 1883.19 1517.25 2291.22 1517.25C2699.25 1517.25 3107.27 1517.25 3515.3 1517.25C3923.33 1517.25 4319.36 1517.25 4727.38 1517.25C5135.41 1517.25 5543.44 1517.25 5951.46 1517.25C6359.49 1517.25 6755.52 1517.25 7163.55 1517.25C7571.57 1517.25 7979.6 1517.25 8387.63 1517.25C8795.66 1517.25 9203.7 1517.25 9599.73 1517.25C10007.8 1517.25 10415.8 1517.25 10823.8 1517.25C11231.8 1517.25 11639.9 1517.25 12035.9 1517.25C12443.9 1517.25 12851.9 1517.25 13056 1517.25H13260V1274.32Z" fill="url(#paint4_linear_10054_17162)" />
    </g>
  </g>
  <defs>
    <filter id="filter0_d_10054_17162" x="-5274.7" y="-2272.14" width="18646.4" height="3846.36" filterUnits="userSpaceOnUse" color-interpolation-filters="sRGB">
      <feFlood flood-opacity="0" result="BackgroundImageFix" />
      <feColorMatrix in="SourceAlpha" type="matrix" values="0 0 0 0 0 0 0 0 0 0 0 0 0 0 0 0 0 0 127 0" result="hardAlpha" />
      <feOffset dy="-28.4876" />
      <feGaussianBlur stdDeviation="42.7314" />
      <feComposite in2="hardAlpha" operator="out" />
      <feColorMatrix type="matrix" values="0 0 0 0 0.0604167 0 0 0 0 0.005 0 0 0 0 0.1 0 0 0 0.15 0" />
      <feBlend mode="normal" in2="BackgroundImageFix" result="effect1_dropShadow_10054_17162" />
      <feBlend mode="normal" in="SourceGraphic" in2="effect1_dropShadow_10054_17162" result="shape" />
    </filter>
    <filter id="filter1_d_10054_17162" x="-3389.02" y="-1452.76" width="16012" height="3026.99" filterUnits="userSpaceOnUse" color-interpolation-filters="sRGB">
      <feFlood flood-opacity="0" result="BackgroundImageFix" />
      <feColorMatrix in="SourceAlpha" type="matrix" values="0 0 0 0 0 0 0 0 0 0 0 0 0 0 0 0 0 0 127 0" result="hardAlpha" />
      <feOffset dy="-28.4876" />
      <feGaussianBlur stdDeviation="42.7314" />
      <feComposite in2="hardAlpha" operator="out" />
      <feColorMatrix type="matrix" values="0 0 0 0 0.0604167 0 0 0 0 0.005 0 0 0 0 0.1 0 0 0 0.15 0" />
      <feBlend mode="normal" in2="BackgroundImageFix" result="effect1_dropShadow_10054_17162" />
      <feBlend mode="normal" in="SourceGraphic" in2="effect1_dropShadow_10054_17162" result="shape" />
    </filter>
    <filter id="filter2_d_10054_17162" x="-3182.61" y="-527.707" width="16012" height="2101.93" filterUnits="userSpaceOnUse" color-interpolation-filters="sRGB">
      <feFlood flood-opacity="0" result="BackgroundImageFix" />
      <feColorMatrix in="SourceAlpha" type="matrix" values="0 0 0 0 0 0 0 0 0 0 0 0 0 0 0 0 0 0 127 0" result="hardAlpha" />
      <feOffset dy="-28.4876" />
      <feGaussianBlur stdDeviation="42.7314" />
      <feComposite in2="hardAlpha" operator="out" />
      <feColorMatrix type="matrix" values="0 0 0 0 0.0604167 0 0 0 0 0.005 0 0 0 0 0.1 0 0 0 0.15 0" />
      <feBlend mode="normal" in2="BackgroundImageFix" result="effect1_dropShadow_10054_17162" />
      <feBlend mode="normal" in="SourceGraphic" in2="effect1_dropShadow_10054_17162" result="shape" />
    </filter>
    <filter id="filter3_d_10054_17162" x="-2939.47" y="215.991" width="16012" height="1358.23" filterUnits="userSpaceOnUse" color-interpolation-filters="sRGB">
      <feFlood flood-opacity="0" result="BackgroundImageFix" />
      <feColorMatrix in="SourceAlpha" type="matrix" values="0 0 0 0 0 0 0 0 0 0 0 0 0 0 0 0 0 0 127 0" result="hardAlpha" />
      <feOffset dy="-28.4876" />
      <feGaussianBlur stdDeviation="42.7314" />
      <feComposite in2="hardAlpha" operator="out" />
      <feColorMatrix type="matrix" values="0 0 0 0 0.0604167 0 0 0 0 0.005 0 0 0 0 0.1 0 0 0 0.15 0" />
      <feBlend mode="normal" in2="BackgroundImageFix" result="effect1_dropShadow_10054_17162" />
      <feBlend mode="normal" in="SourceGraphic" in2="effect1_dropShadow_10054_17162" result="shape" />
    </filter>
    <filter id="filter4_d_10054_17162" x="-2666.59" y="676.562" width="16012" height="897.663" filterUnits="userSpaceOnUse" color-interpolation-filters="sRGB">
      <feFlood flood-opacity="0" result="BackgroundImageFix" />
      <feColorMatrix in="SourceAlpha" type="matrix" values="0 0 0 0 0 0 0 0 0 0 0 0 0 0 0 0 0 0 127 0" result="hardAlpha" />
      <feOffset dy="-28.4876" />
      <feGaussianBlur stdDeviation="42.7314" />
      <feComposite in2="hardAlpha" operator="out" />
      <feColorMatrix type="matrix" values="0 0 0 0 0.0604167 0 0 0 0 0.005 0 0 0 0 0.1 0 0 0 0.15 0" />
      <feBlend mode="normal" in2="BackgroundImageFix" result="effect1_dropShadow_10054_17162" />
      <feBlend mode="normal" in="SourceGraphic" in2="effect1_dropShadow_10054_17162" result="shape" />
    </filter>
    <linearGradient id="paint0_linear_10054_17162" x1="2195.17" y1="-352.657" x2="234.702" y2="894.234" gradientUnits="userSpaceOnUse">
      <stop stop-color="#11007A" />
      <stop offset="0.515625" stop-color="#6328C3" />
      <stop offset="1" stop-color="#E36BFF" />
    </linearGradient>
    <linearGradient id="paint1_linear_10054_17162" x1="2452.31" y1="-665.025" x2="472.442" y2="1433.9" gradientUnits="userSpaceOnUse">
      <stop stop-color="#11007A" />
      <stop offset="0.515625" stop-color="#6328C3" />
      <stop offset="1" stop-color="#E36BFF" />
    </linearGradient>
    <linearGradient id="paint2_linear_10054_17162" x1="2416.45" y1="273.16" x2="652.979" y2="1875.72" gradientUnits="userSpaceOnUse">
      <stop stop-color="#11007A" />
      <stop offset="0.515625" stop-color="#6328C3" />
      <stop offset="1" stop-color="#E36BFF" />
    </linearGradient>
    <linearGradient id="paint3_linear_10054_17162" x1="2426.94" y1="1101.69" x2="890.336" y2="2340.72" gradientUnits="userSpaceOnUse">
      <stop stop-color="#11007A" />
      <stop offset="0.515625" stop-color="#6328C3" />
      <stop offset="1" stop-color="#E36BFF" />
    </linearGradient>
    <linearGradient id="paint4_linear_10054_17162" x1="2393.71" y1="1764.86" x2="1323.05" y2="2794.26" gradientUnits="userSpaceOnUse">
      <stop stop-color="#11007A" />
      <stop offset="0.515625" stop-color="#6328C3" />
      <stop offset="1" stop-color="#E36BFF" />
    </linearGradient>
  </defs>
</svg>
